<svg xmlns="http://www.w3.org/2000/svg" width="1200" height="320" viewBox="0 0 1200 320" role="img" aria-label="Akaash Jaiswal  Founder and CEO, Wooble">
  <defs>
    <linearGradient id="bg" x1="0%" y1="0%" x2="100%" y2="100%">
      <stop offset="0%" stop-color="#0052ff"/>
      <stop offset="100%" stop-color="#0a1f5c"/>
    </linearGradient>
    <pattern id="grid" width="40" height="40" patternUnits="userSpaceOnUse">
      <circle cx="2" cy="2" r="1.2" fill="#ffffff" opacity="0.08"/>
    </pattern>
  </defs>

  <rect width="1200" height="320" fill="url(#bg)"/>
  <rect width="1200" height="320" fill="url(#grid)"/>

  <g transform="translate(56, 108) scale(0.52)">
    <path d="M 84.03 192.40 C75.22,190.03 68.15,184.82 62.30,176.38 C58.56,171.00 1.00,55.11 1.00,52.98 C1.00,49.44 5.17,48.76 24.00,49.25 C43.31,49.76 47.25,50.70 50.50,55.61 C51.55,57.20 61.26,76.00 72.08,97.39 C82.90,118.78 92.52,136.71 93.47,137.24 C94.85,138.02 96.27,137.05 100.84,132.21 C106.95,125.73 108.57,124.79 111.22,126.15 C113.46,127.30 132.00,165.49 132.00,168.95 C132.00,172.05 127.76,179.10 123.09,183.76 C114.14,192.70 98.24,196.22 84.03,192.40 ZM 171.00 191.69 C163.28,189.45 158.85,186.81 153.19,181.06 C148.16,175.94 145.33,170.68 117.86,115.37 C101.44,82.30 88.00,54.09 88.00,52.68 C88.00,51.27 88.44,49.85 88.97,49.52 C90.84,48.36 125.39,48.68 129.72,49.88 C132.58,50.68 134.85,52.23 136.72,54.67 C138.25,56.65 148.33,75.87 159.13,97.39 C173.66,126.34 179.25,136.58 180.65,136.79 C181.72,136.95 183.70,135.85 185.17,134.29 C186.61,132.76 201.53,104.28 218.33,71.00 C235.13,37.72 250.24,8.86 251.90,6.85 C256.49,1.35 261.69,-0.01 277.93,0.06 C285.39,0.09 293.30,0.43 295.50,0.82 C303.15,2.16 304.14,-0.25 258.12,91.75 C212.09,183.76 212.00,183.92 200.49,189.55 C196.08,191.71 193.33,192.26 185.30,192.59 C179.01,192.85 173.89,192.53 171.00,191.69 ZM 284.27 188.95 C272.89,186.70 263.08,179.02 258.48,168.77 C254.53,159.97 253.87,147.03 256.87,137.36 C262.25,120.02 275.62,111.28 295.39,112.19 C306.77,112.72 314.97,116.07 321.09,122.71 C334.35,137.10 334.82,162.74 322.11,178.07 C314.73,186.97 298.26,191.71 284.27,188.95 ZM 300.90 173.55 C308.75,169.49 312.60,160.29 311.84,147.42 C311.10,134.83 305.06,127.19 295.09,126.23 C285.39,125.30 278.50,130.22 275.54,140.17 C271.72,153.05 275.29,166.91 283.92,172.73 C287.92,175.42 296.48,175.84 300.90,173.55 ZM 370.50 188.68 C351.50,183.81 340.35,166.93 342.43,146.20 C343.49,135.67 346.43,129.30 353.42,122.40 C361.89,114.03 369.09,111.54 382.89,112.22 C394.32,112.78 401.24,115.55 407.93,122.25 C426.99,141.34 420.34,177.99 396.18,187.04 C389.31,189.61 377.15,190.38 370.50,188.68 ZM 388.40 173.61 C395.39,170.68 399.42,161.95 399.38,149.79 C399.33,135.40 391.99,126.06 380.71,126.02 C372.02,125.99 365.58,131.13 362.92,140.21 C362.39,142.02 361.94,147.04 361.91,151.36 C361.84,165.87 368.74,175.00 379.76,175.00 C382.68,175.00 386.57,174.37 388.40,173.61 ZM 438.32 188.81 C434.08,186.76 433.93,184.75 434.22,135.14 L 434.50 87.83 L 437.31 85.41 C440.89,82.33 445.11,82.33 448.69,85.41 L 451.50 87.82 L 451.82 105.46 L 452.13 123.09 L 455.59 120.05 C462.58,113.91 466.58,112.51 477.00,112.51 C485.05,112.51 487.19,112.87 491.00,114.87 C502.75,121.04 509.03,133.43 508.99,150.39 C508.94,167.27 501.87,180.98 490.27,186.66 C485.57,188.96 483.23,189.45 477.03,189.46 C468.22,189.47 462.57,187.32 456.13,181.50 C452.38,178.11 452.00,177.96 452.00,179.93 C452.00,187.18 444.72,191.91 438.32,188.81 ZM 480.87 171.71 C486.68,167.86 489.30,161.51 489.41,151.00 C489.56,137.23 484.40,128.10 475.52,126.44 C463.48,124.18 454.30,133.01 453.24,147.89 C452.51,158.06 454.35,164.40 459.53,169.58 C461.87,171.92 464.84,174.06 466.14,174.33 C470.87,175.33 477.06,174.22 480.87,171.71 ZM 528.36 189.01 C522.94,186.82 523.00,187.42 523.00,136.20 L 523.00 88.85 L 525.92 85.92 C531.00,80.85 539.04,82.90 540.95,89.75 C542.42,95.05 542.37,179.65 540.89,183.88 C539.18,188.79 533.53,191.10 528.36,189.01 ZM 586.17 188.53 C578.40,186.77 572.52,183.42 567.60,177.98 C555.18,164.23 555.29,137.13 567.82,122.86 C569.53,120.91 573.76,117.78 577.21,115.91 C583.37,112.57 583.74,112.50 595.50,112.50 C606.62,112.50 607.92,112.71 613.20,115.30 C624.20,120.70 631.02,131.43 631.00,143.32 C631.00,154.59 629.91,155.00 600.35,155.00 L 578.00 155.00 L 578.00 157.37 C578.00,161.01 580.81,168.17 583.28,170.82 C586.51,174.27 592.38,177.00 596.59,177.00 C602.89,177.00 607.59,174.94 613.97,169.37 C621.10,163.15 623.98,162.10 627.51,164.41 C634.59,169.06 626.46,182.04 613.38,186.98 C605.91,189.79 594.58,190.44 586.17,188.53 ZM 609.44 144.44 C612.96,143.79 613.03,143.68 612.40,140.13 C612.05,138.14 610.86,134.87 609.76,132.87 C604.47,123.24 589.43,122.28 582.72,131.14 C579.55,135.34 577.33,142.97 578.99,143.99 C580.51,144.94 604.89,145.30 609.44,144.44 Z" fill="#ffffff"/>
  </g>

  <line x1="760" y1="96" x2="820" y2="96" stroke="#f59e0b" stroke-width="4" stroke-linecap="round"/>

  <text x="760" y="148" fill="#ffffff" font-family="system-ui, -apple-system, Segoe UI, sans-serif" font-size="52" font-weight="700">Akaash Jaiswal</text>
  <text x="760" y="196" fill="#dbeafe" font-family="system-ui, -apple-system, Segoe UI, sans-serif" font-size="28" font-weight="500">Founder &amp; CEO</text>
  <text x="760" y="236" fill="#f59e0b" font-family="system-ui, -apple-system, Segoe UI, sans-serif" font-size="22" font-weight="600">Betting on skills at the workplace</text>
</svg>
